<?xml version="1.0" encoding="utf-8"?>
<!-- Generator: Adobe Illustrator 16.0.0, SVG Export Plug-In . SVG Version: 6.00 Build 0)  -->
<!DOCTYPE svg PUBLIC "-//W3C//DTD SVG 1.1//EN" "http://www.w3.org/Graphics/SVG/1.1/DTD/svg11.dtd">
<svg version="1.1" id="Layer_1" xmlns="http://www.w3.org/2000/svg" xmlns:xlink="http://www.w3.org/1999/xlink" x="0px" y="0px"
	 width="161.375px" height="43.617px" viewBox="0 0 161.375 43.617" enable-background="new 0 0 161.375 43.617"
	 xml:space="preserve">
<g id="name">
	<path fill="#111111" d="M47.951,35.225l-2.069,6.088h0.813l0.632-1.916h2.16l0.65,1.916h0.84L48.9,35.225H47.951z M49.323,38.784
		h-1.834l0.596-1.763c0.117-0.371,0.216-0.75,0.298-1.102h0.027c0.09,0.35,0.18,0.713,0.308,1.111L49.323,38.784L49.323,38.784z"/>
	<rect x="51.812" y="34.896" fill="#111111" width="0.795" height="6.414"/>
	<rect x="53.923" y="34.896" fill="#111111" width="0.795" height="6.414"/>
	<rect x="56.037" y="36.939" fill="#111111" width="0.795" height="4.371"/>
	<path fill="#111111" d="M56.435,35.115c-0.307,0-0.515,0.226-0.515,0.506c0,0.279,0.199,0.516,0.497,0.516h0.009
		c0.317,0,0.515-0.236,0.515-0.516S56.743,35.115,56.435,35.115z"/>
	<path fill="#111111" d="M61.228,38.628c0-0.877-0.325-1.789-1.671-1.789c-0.551,0-1.084,0.152-1.445,0.379l0.181,0.533
		c0.307-0.207,0.731-0.326,1.147-0.326c0.894-0.008,0.994,0.653,0.994,1.013v0.092c-1.69-0.01-2.629,0.568-2.629,1.627
		c0,0.633,0.452,1.256,1.337,1.256c0.624,0,1.103-0.309,1.337-0.65h0.027l0.072,0.551h0.714c-0.045-0.299-0.063-0.668-0.063-1.049
		L61.228,38.628z M60.452,39.84c0,0.082-0.009,0.172-0.036,0.252c-0.127,0.371-0.497,0.732-1.075,0.732
		c-0.397,0-0.741-0.237-0.741-0.76c0-0.848,0.985-1.002,1.852-0.984V39.84z"/>
	<path fill="#111111" d="M64.676,36.839c-0.723,0-1.229,0.409-1.445,0.813h-0.018l-0.045-0.713h-0.704
		c0.027,0.361,0.036,0.723,0.036,1.184v3.186h0.794V38.67c0-0.125,0.018-0.27,0.054-0.369c0.144-0.443,0.55-0.813,1.066-0.813
		c0.75,0,1.012,0.596,1.012,1.301v2.52h0.795V38.7C66.221,37.2,65.281,36.839,64.676,36.839z"/>
	<path fill="#111111" d="M69.541,37.473c0.434,0,0.733,0.107,0.922,0.207l0.182-0.604c-0.217-0.117-0.633-0.236-1.104-0.236
		c-1.426,0-2.348,0.986-2.348,2.332c0,1.344,0.858,2.24,2.178,2.24c0.586,0,1.047-0.154,1.254-0.254l-0.134-0.598
		c-0.227,0.103-0.524,0.209-0.975,0.209c-0.868,0-1.518-0.623-1.518-1.635C67.998,38.221,68.539,37.473,69.541,37.473z"/>
	<path fill="#111111" d="M73.243,36.833c-1.274,0-2.061,1.039-2.061,2.367c0,1.308,0.814,2.202,2.15,2.202
		c0.695,0,1.184-0.151,1.463-0.278l-0.145-0.562c-0.289,0.117-0.641,0.218-1.209,0.218c-0.795,0-1.472-0.444-1.49-1.519l3.062,0.012
		c0.019-0.09,0.027-0.217,0.027-0.379C75.04,38.089,74.671,36.833,73.243,36.833z M71.958,38.691
		c0.065-0.551,0.407-1.291,1.221-1.291c0.885,0,1.102,0.795,1.092,1.291H71.958z"/>
	<path fill="#111111" d="M79.785,37.861c-0.84-0.321-1.209-0.604-1.209-1.174c0-0.416,0.316-0.912,1.146-0.912
		c0.55,0,0.957,0.175,1.146,0.289l0.217-0.641c-0.262-0.154-0.723-0.299-1.336-0.299c-1.184,0-1.969,0.705-1.969,1.652
		c0,0.849,0.613,1.373,1.607,1.733c0.822,0.306,1.146,0.64,1.146,1.201c0,0.623-0.468,1.039-1.273,1.039
		c-0.541,0-1.046-0.169-1.4-0.396l-0.207,0.662c0.324,0.215,0.967,0.397,1.553,0.397c1.437,0,2.123-0.825,2.123-1.765
		C81.329,38.758,80.816,38.27,79.785,37.861z"/>
	<path fill="#111111" d="M84.27,36.84c-1.201,0-2.168,0.859-2.168,2.322c0,1.383,0.922,2.25,2.097,2.25h0.008
		c1.039,0,2.168-0.705,2.168-2.332C86.374,37.754,85.525,36.84,84.27,36.84z M84.227,40.814h-0.009
		c-0.768,0-1.311-0.724-1.311-1.681c0-0.832,0.405-1.698,1.338-1.698c0.94,0,1.31,0.932,1.31,1.672
		C85.555,40.1,84.986,40.814,84.227,40.814z"/>
	<path fill="#111111" d="M89.081,35.439c0.237,0,0.39,0.045,0.517,0.1l0.101-0.613c-0.156-0.063-0.39-0.127-0.679-0.127
		c-0.362,0-0.759,0.117-1.058,0.406c-0.371,0.352-0.517,0.912-0.517,1.525v0.209h-0.604v0.605h0.604v3.766h0.796v-3.767h1.049
		v-0.604h-1.058v-0.234C88.232,36.037,88.413,35.439,89.081,35.439z"/>
	<path fill="#111111" d="M91.066,35.893l-0.776,0.241v0.806h-0.679v0.604h0.679v2.385c0,0.513,0.092,0.902,0.31,1.146
		c0.188,0.207,0.485,0.334,0.856,0.334c0.308,0,0.551-0.054,0.705-0.107l-0.037-0.604c-0.117,0.035-0.244,0.055-0.461,0.055
		c-0.442,0-0.597-0.309-0.597-0.85v-2.357h1.14v-0.605h-1.14V35.893z"/>
	<path fill="#111111" d="M97.577,39.134c-0.146,0.515-0.263,0.976-0.334,1.418h-0.027c-0.1-0.444-0.225-0.911-0.389-1.428
		l-0.677-2.188h-0.67l-0.713,2.224c-0.146,0.481-0.289,0.95-0.39,1.393h-0.026c-0.08-0.452-0.199-0.911-0.315-1.399l-0.586-2.213
		h-0.816l1.32,4.371h0.724l0.702-2.078c0.154-0.469,0.289-0.931,0.397-1.453h0.019c0.111,0.513,0.236,0.947,0.39,1.445l0.668,2.086
		h0.724l1.409-4.371H98.2L97.577,39.134z"/>
	<path fill="#111111" d="M102.822,38.628c0-0.877-0.326-1.789-1.674-1.789c-0.547,0-1.084,0.152-1.443,0.379l0.184,0.533
		c0.305-0.207,0.729-0.326,1.146-0.326c0.893-0.008,0.993,0.653,0.993,1.013v0.092c-1.69-0.01-2.629,0.568-2.629,1.627
		c0,0.633,0.451,1.256,1.338,1.256c0.623,0,1.103-0.309,1.337-0.65h0.026l0.071,0.551h0.713c-0.045-0.299-0.063-0.668-0.063-1.049
		L102.822,38.628z M102.042,39.84c0,0.082-0.008,0.172-0.035,0.252c-0.127,0.371-0.498,0.732-1.075,0.732
		c-0.396,0-0.74-0.237-0.74-0.76c0-0.848,0.985-1.002,1.853-0.984L102.042,39.84z"/>
	<path fill="#111111" d="M104.823,37.799h-0.027l-0.035-0.859h-0.696c0.026,0.406,0.037,0.85,0.037,1.365l-0.009,3.006h0.796v-2.33
		c0-0.136,0.008-0.263,0.026-0.379c0.108-0.589,0.504-1.013,1.065-1.013c0.106,0,0.188,0.009,0.278,0.019v-0.74
		c-0.071-0.018-0.135-0.027-0.217-0.027C105.509,36.84,105.021,37.211,104.823,37.799z"/>
	<path fill="#111111" d="M108.732,36.833c-1.274,0-2.06,1.039-2.06,2.367c0,1.308,0.812,2.202,2.15,2.202
		c0.694,0,1.184-0.151,1.463-0.278l-0.146-0.562c-0.289,0.117-0.642,0.218-1.211,0.218c-0.796,0-1.472-0.444-1.49-1.519l3.065,0.012
		c0.017-0.09,0.027-0.217,0.027-0.379C110.532,38.089,110.161,36.833,108.732,36.833z M107.45,38.691
		c0.063-0.551,0.405-1.291,1.219-1.291c0.886,0,1.103,0.795,1.095,1.291H107.45z"/>
	<rect x="113.441" y="35.225" fill="#111111" width="0.795" height="6.088"/>
	<path fill="#111111" d="M117.759,36.839c-0.721,0-1.227,0.409-1.444,0.813h-0.019l-0.045-0.713h-0.705
		c0.027,0.361,0.035,0.723,0.035,1.184v3.186h0.795V38.67c0-0.125,0.021-0.27,0.056-0.369c0.144-0.443,0.549-0.813,1.065-0.813
		c0.75,0,1.012,0.596,1.012,1.301v2.52h0.796V38.7C119.305,37.2,118.364,36.839,117.759,36.839z"/>
	<path fill="#111111" d="M122.624,37.473c0.435,0,0.733,0.107,0.922,0.207l0.181-0.604c-0.218-0.117-0.634-0.236-1.103-0.236
		c-1.429,0-2.351,0.986-2.351,2.332c0,1.344,0.86,2.24,2.179,2.24c0.588,0,1.049-0.154,1.256-0.254l-0.133-0.598
		c-0.228,0.103-0.527,0.209-0.978,0.209c-0.869,0-1.519-0.623-1.519-1.635C121.079,38.221,121.622,37.473,122.624,37.473z"/>
	<path fill="#111111" d="M126.432,36.84c-1.201,0-2.168,0.859-2.168,2.322c0,1.383,0.922,2.25,2.096,2.25h0.009
		c1.039,0,2.168-0.705,2.168-2.332C128.536,37.754,127.688,36.84,126.432,36.84z M126.389,40.814h-0.009
		c-0.769,0-1.312-0.724-1.312-1.681c0-0.832,0.406-1.698,1.339-1.698c0.94,0,1.309,0.932,1.309,1.672
		C127.716,40.1,127.148,40.814,126.389,40.814z"/>
	<path fill="#111111" d="M130.268,37.799h-0.026l-0.035-0.859h-0.697c0.027,0.406,0.037,0.85,0.037,1.365l-0.008,3.006h0.795v-2.33
		c0-0.136,0.008-0.263,0.026-0.379c0.108-0.589,0.505-1.013,1.065-1.013c0.107,0,0.189,0.009,0.279,0.019v-0.74
		c-0.072-0.018-0.136-0.027-0.218-0.027C130.954,36.84,130.466,37.211,130.268,37.799z"/>
	<path fill="#111111" d="M134.811,36.839c-0.703,0-1.229,0.308-1.543,0.851h-0.021l-0.045-0.75h-0.713
		c0.026,0.414,0.034,0.867,0.034,1.428V43.1h0.795v-2.375h0.021c0.263,0.434,0.759,0.688,1.347,0.688c1.019,0,1.985-0.78,1.985-2.35
		C136.671,37.734,135.876,36.839,134.811,36.839z M134.54,40.789c-0.562,0-1.049-0.381-1.185-0.932
		c-0.026-0.1-0.037-0.217-0.037-0.324v-0.76c0-0.097,0.027-0.217,0.046-0.323c0.153-0.599,0.67-0.978,1.211-0.978
		c0.84,0,1.293,0.75,1.293,1.627C135.868,40.1,135.38,40.789,134.54,40.789z"/>
	<path fill="#111111" d="M139.52,36.84c-1.201,0-2.168,0.859-2.168,2.322c0,1.383,0.922,2.25,2.097,2.25h0.008
		c1.039,0,2.168-0.705,2.168-2.332C141.624,37.754,140.775,36.84,139.52,36.84z M139.477,40.814h-0.009
		c-0.768,0-1.311-0.724-1.311-1.681c0-0.832,0.405-1.698,1.338-1.698c0.94,0,1.31,0.932,1.31,1.672
		C140.805,40.1,140.236,40.814,139.477,40.814z"/>
	<path fill="#111111" d="M143.355,37.799h-0.026l-0.035-0.859h-0.696c0.026,0.406,0.036,0.85,0.036,1.365l-0.008,3.006h0.795v-2.33
		c0-0.136,0.008-0.263,0.027-0.379c0.108-0.589,0.504-1.013,1.065-1.013c0.106,0,0.188,0.009,0.278,0.019v-0.74
		c-0.072-0.018-0.135-0.027-0.217-0.027C144.042,36.84,143.555,37.211,143.355,37.799z"/>
	<path fill="#111111" d="M148.604,40.263h0.002v-1.635c0-0.877-0.326-1.789-1.672-1.789c-0.551,0-1.084,0.152-1.445,0.379
		l0.182,0.533c0.307-0.207,0.73-0.326,1.146-0.326c0.893-0.008,0.994,0.653,0.994,1.013v0.092c-1.691-0.01-2.629,0.568-2.629,1.627
		c0,0.633,0.449,1.256,1.338,1.256c0.623,0,1.102-0.309,1.336-0.65h0.025l0.072,0.551h0.713
		C148.622,41.014,148.604,40.645,148.604,40.263L148.604,40.263z M147.823,39.84c0,0.082-0.009,0.172-0.035,0.252
		c-0.127,0.371-0.498,0.732-1.076,0.732c-0.396,0-0.739-0.237-0.739-0.76c0-0.848,0.985-1.002,1.853-0.984L147.823,39.84z"/>
	<path fill="#111111" d="M150.796,35.893l-0.776,0.241v0.806h-0.679v0.604h0.679v2.385c0,0.513,0.09,0.902,0.308,1.146
		c0.188,0.207,0.487,0.334,0.856,0.334c0.309,0,0.553-0.054,0.705-0.107l-0.035-0.604c-0.117,0.035-0.244,0.055-0.461,0.055
		c-0.444,0-0.597-0.309-0.597-0.85v-2.357h1.138v-0.605h-1.138V35.893z"/>
	<path fill="#111111" d="M154.518,36.833c-1.274,0-2.062,1.039-2.062,2.367c0,1.308,0.813,2.202,2.149,2.202
		c0.694,0,1.185-0.151,1.463-0.278l-0.146-0.562c-0.289,0.117-0.641,0.218-1.209,0.218c-0.795,0-1.471-0.444-1.489-1.519
		l3.063,0.012c0.019-0.09,0.026-0.217,0.026-0.379C156.314,38.089,155.945,36.833,154.518,36.833z M153.23,38.691
		c0.065-0.551,0.408-1.291,1.222-1.291c0.885,0,1.103,0.795,1.092,1.291H153.23z"/>
	<path fill="#111111" d="M161.068,40.182v-5.285v-0.004h-0.795v2.604h-0.021c-0.188-0.344-0.639-0.66-1.317-0.66
		c-1.058,0-1.97,0.887-1.961,2.35c0,1.328,0.821,2.224,1.879,2.224c0.713,0,1.237-0.371,1.481-0.857h0.019l0.037,0.759h0.713
		C161.077,41.013,161.068,40.572,161.068,40.182z M160.273,39.479c0,0.127-0.01,0.237-0.037,0.345
		c-0.145,0.588-0.633,0.946-1.166,0.946c-0.848,0-1.29-0.729-1.29-1.625c0-0.957,0.489-1.68,1.311-1.68
		c0.595,0,1.029,0.414,1.146,0.912c0.027,0.107,0.037,0.235,0.037,0.342V39.479z"/>
	<rect x="46.545" y="0.483" fill="#111111" width="3.941" height="32.623"/>
	<rect x="56.483" y="0.483" fill="#111111" width="3.941" height="32.623"/>
	<rect x="66.337" y="9.688" fill="#111111" width="3.941" height="23.417"/>
	<rect x="66.064" y="1.678" fill="#111111" width="4.486" height="4.089"/>
	<path fill="#111111" d="M86.294,32.623c0.503-0.252,1.024-0.59,1.563-1.018c0.536-0.426,0.965-0.757,1.287-0.994v2.494h3.92V17.088
		c0-1.468-0.209-2.711-0.629-3.732c-0.418-1.02-1.054-1.852-1.906-2.495c-0.879-0.657-1.873-1.112-2.979-1.363
		c-1.102-0.251-2.459-0.377-4.064-0.377c-1.328,0-2.67,0.125-4.025,0.377s-2.396,0.483-3.123,0.692v4.005h0.23
		c1.228-0.518,2.459-0.913,3.689-1.185c1.228-0.272,2.3-0.409,3.207-0.409c0.769,0,1.517,0.052,2.244,0.157
		c0.728,0.104,1.342,0.318,1.844,0.639c0.505,0.308,0.896,0.745,1.175,1.311c0.278,0.565,0.42,1.31,0.42,2.232v0.756
		c-3.613,0.196-5.519,0.479-5.785,0.514c-1.791,0.23-3.34,0.646-4.653,1.247c-1.482,0.671-2.566,1.576-3.25,2.715
		c-0.685,1.141-1.027,2.52-1.027,4.141c0,1.05,0.187,2.045,0.566,2.988c0.377,0.943,0.879,1.736,1.508,2.379
		c0.658,0.656,1.42,1.166,2.285,1.529c0.868,0.363,1.783,0.547,2.748,0.547c1.172,0,2.086-0.1,2.733-0.295
		C84.921,33.266,85.596,32.986,86.294,32.623z M79.627,29.1c-0.756-0.685-1.133-1.697-1.133-3.039c0-1.188,0.341-2.114,1.027-2.777
		c0.686-0.664,1.554-1.157,2.6-1.479c0.881-0.265,2.037-0.472,3.471-0.618c1.434-0.147,2.617-0.262,3.555-0.346v6.5
		c-0.881,0.783-1.826,1.44-2.832,1.979c-1.006,0.537-2.131,0.808-3.375,0.808C81.482,30.126,80.381,29.785,79.627,29.1z"/>
	<path fill="#111111" d="M117.009,33.105l-0.002-15.199c0-2.879-0.649-5.076-1.95-6.593c-1.3-1.516-3.101-2.275-5.408-2.275
		c-1.272,0-2.48,0.28-3.627,0.839c-1.146,0.559-2.306,1.363-3.479,2.411v-2.6h-3.94v23.416h3.94V15.619
		c0.992-0.838,2.01-1.52,3.051-2.044c1.041-0.524,2.05-0.786,3.029-0.786c0.994,0,1.776,0.144,2.348,0.43
		c0.572,0.288,1.021,0.725,1.343,1.313c0.293,0.558,0.494,1.302,0.599,2.23c0.104,0.93,0.157,1.933,0.157,3.009v13.334H117.009z"/>
	<path fill="#111111" d="M138.77,27.359h-0.23c-0.895,0.839-1.922,1.524-3.082,2.056s-2.383,0.797-3.668,0.797
		c-2.125,0-3.785-0.771-4.98-2.315c-1.191-1.545-1.791-3.699-1.791-6.468c0-2.823,0.617-5.008,1.855-6.552
		c1.236-1.544,2.875-2.316,4.916-2.316c0.684,0,1.396,0.104,2.139,0.314c0.74,0.21,1.383,0.454,1.928,0.734
		c0.629,0.321,1.166,0.635,1.604,0.943c0.44,0.307,0.801,0.58,1.08,0.817h0.229v-4.423c-0.935-0.476-2.002-0.895-3.196-1.258
		c-1.197-0.363-2.438-0.545-3.722-0.545c-1.58,0-3.06,0.276-4.435,0.828c-1.377,0.552-2.526,1.338-3.449,2.358
		c-0.922,1.021-1.659,2.278-2.211,3.774c-0.553,1.495-0.827,3.27-0.827,5.325c0,2.068,0.264,3.867,0.795,5.398
		c0.53,1.531,1.278,2.799,2.243,3.805c0.966,1.006,2.117,1.758,3.459,2.254c1.343,0.496,2.818,0.744,4.425,0.744
		c0.836,0,1.522-0.053,2.053-0.158c0.531-0.104,1.133-0.256,1.803-0.451c0.477-0.127,1.006-0.315,1.594-0.576
		c0.588-0.26,1.076-0.478,1.469-0.659V27.359z"/>
	<path fill="#111111" d="M160.532,31.68v-4.299h-0.23c-0.319,0.268-0.727,0.549-1.215,0.852c-0.489,0.302-1.09,0.612-1.803,0.933
		c-0.673,0.31-1.425,0.562-2.255,0.756c-0.831,0.195-1.682,0.293-2.547,0.293c-2.42,0-4.313-0.721-5.683-2.16
		c-1.37-1.438-2.055-3.521-2.055-6.248h16.228v-2.138c0-1.873-0.225-3.456-0.673-4.749s-1.09-2.385-1.928-3.281
		c-0.84-0.895-1.817-1.552-2.937-1.971s-2.403-0.629-3.856-0.629c-3.229,0-5.843,1.129-7.84,3.386c-2,2.256-2.998,5.294-2.998,9.109
		c0,3.869,1.028,6.857,3.092,8.961c2.06,2.104,4.957,3.154,8.688,3.154c0.953,0,1.737-0.055,2.36-0.166
		c0.621-0.11,1.316-0.271,2.086-0.479c0.546-0.157,1.16-0.37,1.845-0.641C159.499,32.088,160.07,31.862,160.532,31.68z
		 M145.331,16.176c0.31-0.748,0.756-1.429,1.342-2.044c0.603-0.601,1.271-1.059,2.002-1.373c0.736-0.315,1.625-0.472,2.675-0.472
		c1.063,0,1.952,0.154,2.674,0.461c0.718,0.308,1.308,0.755,1.771,1.342c0.418,0.532,0.74,1.181,0.963,1.95
		c0.226,0.769,0.351,1.685,0.379,2.747l-12.391-0.001C144.829,17.794,145.023,16.924,145.331,16.176z"/>
</g>
<g id="logo">
	<path id="top" fill="#EC2224" d="M39.227,0.87c-2.59,2.917-5.089,5.736-7.593,8.549C22.562,19.614,13.486,29.807,4.419,40.008
		c-0.383,0.43-0.694,0.707-1.376,0.533c-1.967-0.506-3.032-1.809-3.037-3.969c-0.011-4.623-0.004-9.244-0.004-13.867
		c0-6.113,0-12.226,0.001-18.336c0.001-2.881,1.435-4.36,4.293-4.363c10.674-0.01,21.348-0.004,32.021-0.002
		C37.329,0.002,38.297,0.152,39.227,0.87z"/>
	<path id="bottom" fill="#EC2224" d="M10.942,40.666c2.023-2.348,3.865-4.482,5.709-6.615c1.232-1.428,2.441-2.875,3.725-4.254
		c0.331-0.354,0.907-0.68,1.372-0.68c6.14-0.018,12.28,0.027,18.42,0.063c0.117,0,0.234,0.037,0.481,0.078c0,0.354,0,0.707,0,1.059
		c-0.001,1.979,0.006,3.953-0.002,5.931c-0.014,2.926-1.425,4.373-4.369,4.412c-2.675,0.034-5.351,0.01-8.027,0.01
		c-5.352,0-10.703,0-16.055,0C11.873,40.666,11.546,40.666,10.942,40.666z"/>
	<path id="middle" fill="#EC2224" d="M40.55,24.365c-5.103,0-10.167,0-15.49,0c5.19-6.006,10.273-11.885,15.49-17.922
		C40.55,12.511,40.55,18.377,40.55,24.365z"/>
</g>
</svg>
